<?xml version="1.0" encoding="UTF-8" standalone="no"?>
<!-- Created with Inkscape (http://www.inkscape.org/) -->

<svg
   width="360mm"
   height="360mm"
   viewBox="0 0 360 360"
   version="1.1"
   id="svg5"
   xml:space="preserve"
   inkscape:version="1.2.2 (732a01da63, 2022-12-09)"
   sodipodi:docname="viossaFlag.svg"
   xmlns:inkscape="http://www.inkscape.org/namespaces/inkscape"
   xmlns:sodipodi="http://sodipodi.sourceforge.net/DTD/sodipodi-0.dtd"
   xmlns="http://www.w3.org/2000/svg"
   xmlns:svg="http://www.w3.org/2000/svg"><sodipodi:namedview
     id="namedview7"
     pagecolor="#ffffff"
     bordercolor="#000000"
     borderopacity="0.25"
     inkscape:showpageshadow="2"
     inkscape:pageopacity="0.0"
     inkscape:pagecheckerboard="0"
     inkscape:deskcolor="#d1d1d1"
     inkscape:document-units="mm"
     showgrid="false"
     inkscape:zoom="5.7299663"
     inkscape:cx="86.126161"
     inkscape:cy="613.87795"
     inkscape:window-width="2400"
     inkscape:window-height="1411"
     inkscape:window-x="2391"
     inkscape:window-y="-9"
     inkscape:window-maximized="1"
     inkscape:current-layer="layer2"><inkscape:grid
       type="xygrid"
       id="grid302" /></sodipodi:namedview><defs
     id="defs2" /><g
     inkscape:groupmode="layer"
     id="layer2"
     inkscape:label="Layer 2"
     transform="translate(134.0933,87.179113)"><path
       style="fill:#00bbff;fill-opacity:1;stroke:none;stroke-width:0.0289973;stroke-miterlimit:22.2;stroke-dasharray:none;stroke-opacity:1"
       id="path6216"
       sodipodi:type="arc"
       sodipodi:cx="45.906708"
       sodipodi:cy="92.820892"
       sodipodi:rx="180"
       sodipodi:ry="180"
       sodipodi:start="4.6934522"
       sodipodi:end="4.6302294"
       sodipodi:open="true"
       sodipodi:arc-type="arc"
       d="M 42.498291,-87.146834 A 180,180 0 0 1 225.79809,86.568504 180,180 0 0 1 55.001506,272.59098 180,180 0 0 1 -133.69718,104.75583 180,180 0 0 1 31.134615,-86.571932"
       inkscape:export-filename="..\Finished\ViossaFlagCirc3_2ratio.svg"
       inkscape:export-xdpi="96"
       inkscape:export-ydpi="96" /><g
       id="g5819"
       transform="matrix(0.93405356,0,0,0.93405356,-53.016663,-34.779538)"><path
         style="fill:#ffffff;fill-opacity:1;stroke:none;stroke-width:0.399354;stroke-miterlimit:22.2"
         id="path385"
         sodipodi:type="arc"
         sodipodi:cx="105.9076"
         sodipodi:cy="136.60933"
         sodipodi:rx="128.47229"
         sodipodi:ry="128.47374"
         sodipodi:start="4.6934522"
         sodipodi:end="4.6302294"
         sodipodi:open="true"
         sodipodi:arc-type="arc"
         d="M 103.47489,8.1586244 A 128.47229,128.47374 0 0 1 234.30236,132.14673 128.47229,128.47374 0 0 1 112.39888,264.91897 128.47229,128.47374 0 0 1 -22.281972,145.12781 128.47229,128.47374 0 0 1 95.364242,8.5689572" /><path
         style="fill:#00bbff;fill-opacity:1;stroke:none;stroke-width:0.029;stroke-miterlimit:22.2;stroke-dasharray:none"
         d="m 117.05457,164.17654 c 8.03452,-0.0462 8.49627,-1.08512 8.49627,-1.08512 9.82856,-19.81483 22.21219,-26.80177 41.97341,-36.29385 8.34356,-3.68297 19.0164,-10.96258 27.61288,-17.13106 6.26354,-4.49445 12.05177,-10.297107 20.17864,-13.621734 8.53145,-3.490137 -10.80504,12.328824 -10.80504,12.328824 -9.0042,8.12686 -14.95674,11.81852 -22.02565,15.97668 -10.7129,6.30168 -14.31359,8.34425 -19.30131,12.14412 -5.80492,4.42245 -9.88634,7.92764 -13.66791,10.29711 -7.29571,4.57136 -9.28125,7.66511 -10.11241,8.77332 -0.83116,1.10821 -3.97108,5.95663 -3.97108,5.95663 1.66231,-0.50793 4.94076,-1.01586 4.94076,-1.01586 0.0462,2.40112 -5.49486,6.7416 -5.49486,6.7416 -2.77053,1.89319 -5.77193,4.47901 -5.77193,4.47901 1.20056,11.49767 -5.58722,18.0084 -5.58722,18.0084 -9.28124,10.20475 -18.3427,0.76386 -20.22481,-4.20196 -3.17843,-8.38609 -13.802587,-15.78912 -23.687967,-17.82369 -11.028807,-2.26991 -14.129558,-1.84483 -21.05597,-3.46315 -19.763059,-4.61754 -25.561421,-6.75206 -38.510261,-9.37361 -7.526586,-1.52379 -13.8064366,-4.20196 -13.8064366,-4.20196 0,0 -10.8973881,-4.84841 -13.5293844,-8.35774 -2.6319962,-3.50933 7.20335825,-0.3694 7.20335825,-0.3694 0,0 5.60046125,2.09797 8.49626865,2.81669 19.1627801,4.75607 27.5461821,6.95957 33.8465491,7.24953 6.300367,0.29001 17.394868,0.27841 17.394868,0.27841 17.211282,0.25025 32.426083,4.51346 41.247855,12.11969 1.92916,1.66334 3.41698,1.73157 4.42129,1.92782 3.28987,0.10945 8.16149,-1.974 11.74009,-2.1587 z"
         id="path455"
         sodipodi:nodetypes="cczccscccsscccccsssscssccscc" /></g></g></svg>
